<mxfile host="app.diagrams.net" modified="2021-08-18T12:52:20.448Z" agent="5.0 (Windows NT 10.0; Win64; x64) AppleWebKit/537.36 (KHTML, like Gecko) Chrome/92.0.4515.131 Safari/537.36" etag="0zJ2pSncHTEhOehzOnXA" version="14.9.6" type="github">
  <diagram id="C5RBs43oDa-KdzZeNtuy" name="Page-1">
    <mxGraphModel dx="1695" dy="323" grid="1" gridSize="10" guides="1" tooltips="1" connect="1" arrows="1" fold="1" page="1" pageScale="1" pageWidth="827" pageHeight="1169" math="0" shadow="0">
      <root>
        <mxCell id="WIyWlLk6GJQsqaUBKTNV-0" />
        <mxCell id="WIyWlLk6GJQsqaUBKTNV-1" parent="WIyWlLk6GJQsqaUBKTNV-0" />
        <mxCell id="WIyWlLk6GJQsqaUBKTNV-2" value="" style="rounded=0;html=1;jettySize=auto;orthogonalLoop=1;fontSize=11;endArrow=block;endFill=0;endSize=8;strokeWidth=1;shadow=0;labelBackgroundColor=none;edgeStyle=orthogonalEdgeStyle;fillColor=#fad9d5;strokeColor=#ae4132;entryX=0;entryY=0.5;entryDx=0;entryDy=0;" parent="WIyWlLk6GJQsqaUBKTNV-1" source="WIyWlLk6GJQsqaUBKTNV-3" target="62yGKYg9sWNwVXay85ur-0" edge="1">
          <mxGeometry relative="1" as="geometry">
            <mxPoint x="340" y="130" as="targetPoint" />
            <Array as="points">
              <mxPoint x="170" y="100" />
              <mxPoint x="80" y="100" />
              <mxPoint x="80" y="140" />
            </Array>
          </mxGeometry>
        </mxCell>
        <mxCell id="WIyWlLk6GJQsqaUBKTNV-3" value="&lt;font color=&quot;#99004d&quot; face=&quot;Verdana&quot;&gt;&lt;b&gt;E-commerce JAP&lt;/b&gt;&lt;/font&gt;" style="rounded=1;whiteSpace=wrap;html=1;fontSize=12;glass=0;strokeWidth=1;shadow=0;fillColor=#f8cecc;strokeColor=#b85450;" parent="WIyWlLk6GJQsqaUBKTNV-1" vertex="1">
          <mxGeometry x="110" y="50" width="120" height="40" as="geometry" />
        </mxCell>
        <mxCell id="WIyWlLk6GJQsqaUBKTNV-6" value="Desea añadir más productos a la lista?" style="rhombus;whiteSpace=wrap;html=1;shadow=0;fontFamily=Verdana;fontSize=10;align=center;strokeWidth=1;spacing=6;spacingTop=-4;fillColor=#fad9d5;strokeColor=#AE4132;fontColor=#99004D;fontStyle=1" parent="WIyWlLk6GJQsqaUBKTNV-1" vertex="1">
          <mxGeometry x="325" y="570" width="130" height="120" as="geometry" />
        </mxCell>
        <mxCell id="62yGKYg9sWNwVXay85ur-6" value="" style="edgeStyle=orthogonalEdgeStyle;rounded=0;orthogonalLoop=1;jettySize=auto;html=1;" edge="1" parent="WIyWlLk6GJQsqaUBKTNV-1" source="WIyWlLk6GJQsqaUBKTNV-7" target="WIyWlLk6GJQsqaUBKTNV-12">
          <mxGeometry relative="1" as="geometry" />
        </mxCell>
        <mxCell id="WIyWlLk6GJQsqaUBKTNV-7" value="&lt;font color=&quot;#99004d&quot; style=&quot;font-size: 9px;&quot;&gt;&lt;b style=&quot;font-size: 9px;&quot;&gt;Seleccionar categoria de producto&lt;/b&gt;&lt;/font&gt;" style="rounded=1;whiteSpace=wrap;html=1;fontSize=9;glass=0;strokeWidth=1;shadow=0;fillColor=#e1d5e7;strokeColor=#9673a6;fontFamily=Verdana;" parent="WIyWlLk6GJQsqaUBKTNV-1" vertex="1">
          <mxGeometry x="330" y="270" width="120" height="40" as="geometry" />
        </mxCell>
        <mxCell id="WIyWlLk6GJQsqaUBKTNV-8" value="No" style="rounded=0;html=1;jettySize=auto;orthogonalLoop=1;fontSize=11;endArrow=block;endFill=0;endSize=8;strokeWidth=1;shadow=0;labelBackgroundColor=none;edgeStyle=orthogonalEdgeStyle;exitX=0;exitY=0.5;exitDx=0;exitDy=0;fillColor=#fad9d5;strokeColor=#AE4132;fontFamily=Verdana;fontColor=#99004D;fontStyle=1" parent="WIyWlLk6GJQsqaUBKTNV-1" source="WIyWlLk6GJQsqaUBKTNV-6" target="WIyWlLk6GJQsqaUBKTNV-11" edge="1">
          <mxGeometry x="0.3333" y="20" relative="1" as="geometry">
            <mxPoint as="offset" />
          </mxGeometry>
        </mxCell>
        <mxCell id="WIyWlLk6GJQsqaUBKTNV-11" value="Abrir carrito" style="rounded=1;whiteSpace=wrap;html=1;fontSize=12;glass=0;strokeWidth=1;shadow=0;fillColor=#fad9d5;strokeColor=#AE4132;fontFamily=Verdana;fontColor=#99004D;fontStyle=1" parent="WIyWlLk6GJQsqaUBKTNV-1" vertex="1">
          <mxGeometry x="140" y="610" width="120" height="40" as="geometry" />
        </mxCell>
        <mxCell id="WIyWlLk6GJQsqaUBKTNV-12" value="&lt;b style=&quot;font-size: 9px;&quot;&gt;&lt;font color=&quot;#99004d&quot; style=&quot;font-size: 9px;&quot;&gt;Seleccionar producto&lt;/font&gt;&lt;/b&gt;" style="rounded=1;whiteSpace=wrap;html=1;fontSize=9;glass=0;strokeWidth=1;shadow=0;fillColor=#e1d5e7;strokeColor=#9673a6;fontFamily=Verdana;" parent="WIyWlLk6GJQsqaUBKTNV-1" vertex="1">
          <mxGeometry x="330" y="370" width="120" height="40" as="geometry" />
        </mxCell>
        <mxCell id="QQQ8afkFYY7rdYaOuxrr-0" value="" style="endArrow=classic;html=1;fillColor=#e1d5e7;strokeColor=#9673a6;" parent="WIyWlLk6GJQsqaUBKTNV-1" edge="1">
          <mxGeometry width="50" height="50" relative="1" as="geometry">
            <mxPoint x="389.5" y="310" as="sourcePoint" />
            <mxPoint x="389.5" y="370" as="targetPoint" />
            <Array as="points">
              <mxPoint x="390" y="330" />
            </Array>
          </mxGeometry>
        </mxCell>
        <mxCell id="QQQ8afkFYY7rdYaOuxrr-1" value="" style="endArrow=classic;html=1;fillColor=#e1d5e7;strokeColor=#9673a6;" parent="WIyWlLk6GJQsqaUBKTNV-1" edge="1">
          <mxGeometry width="50" height="50" relative="1" as="geometry">
            <mxPoint x="389.5" y="410" as="sourcePoint" />
            <mxPoint x="389.5" y="470" as="targetPoint" />
            <Array as="points">
              <mxPoint x="390" y="430" />
            </Array>
          </mxGeometry>
        </mxCell>
        <mxCell id="QQQ8afkFYY7rdYaOuxrr-2" value="Yes" style="edgeStyle=orthogonalEdgeStyle;rounded=0;html=1;jettySize=auto;orthogonalLoop=1;fontSize=11;endArrow=block;endFill=0;endSize=8;strokeWidth=1;shadow=0;labelBackgroundColor=none;exitX=1;exitY=0.5;exitDx=0;exitDy=0;fillColor=#fad9d5;strokeColor=#AE4132;fontFamily=Verdana;fontColor=#99004D;fontStyle=1;entryX=0;entryY=0.5;entryDx=0;entryDy=0;" parent="WIyWlLk6GJQsqaUBKTNV-1" source="WIyWlLk6GJQsqaUBKTNV-6" target="QQQ8afkFYY7rdYaOuxrr-3" edge="1">
          <mxGeometry y="10" relative="1" as="geometry">
            <mxPoint as="offset" />
            <mxPoint x="470" y="550" as="sourcePoint" />
            <mxPoint x="490" y="605" as="targetPoint" />
          </mxGeometry>
        </mxCell>
        <mxCell id="QQQ8afkFYY7rdYaOuxrr-3" value="Volver a la lista" style="rounded=1;whiteSpace=wrap;html=1;fontSize=12;glass=0;strokeWidth=1;shadow=0;fillColor=#fad9d5;strokeColor=#AE4132;fontFamily=Verdana;fontColor=#99004D;fontStyle=1" parent="WIyWlLk6GJQsqaUBKTNV-1" vertex="1">
          <mxGeometry x="540" y="610" width="120" height="40" as="geometry" />
        </mxCell>
        <mxCell id="QQQ8afkFYY7rdYaOuxrr-4" value="&lt;font color=&quot;#99004d&quot; style=&quot;font-size: 10px;&quot;&gt;&lt;b style=&quot;font-size: 10px;&quot;&gt;Añadir al carrito&lt;/b&gt;&lt;/font&gt;" style="rounded=1;whiteSpace=wrap;html=1;fontSize=10;glass=0;strokeWidth=1;shadow=0;fillColor=#fad9d5;strokeColor=#ae4132;fontFamily=Verdana;" parent="WIyWlLk6GJQsqaUBKTNV-1" vertex="1">
          <mxGeometry x="330" y="470" width="120" height="40" as="geometry" />
        </mxCell>
        <mxCell id="QQQ8afkFYY7rdYaOuxrr-5" value="" style="endArrow=classic;html=1;fillColor=#f8cecc;strokeColor=#b85450;" parent="WIyWlLk6GJQsqaUBKTNV-1" edge="1">
          <mxGeometry width="50" height="50" relative="1" as="geometry">
            <mxPoint x="389.5" y="510" as="sourcePoint" />
            <mxPoint x="389.5" y="570" as="targetPoint" />
            <Array as="points">
              <mxPoint x="390" y="530" />
            </Array>
          </mxGeometry>
        </mxCell>
        <mxCell id="QQQ8afkFYY7rdYaOuxrr-8" value="" style="edgeStyle=orthogonalEdgeStyle;rounded=0;orthogonalLoop=1;jettySize=auto;html=1;exitX=0.5;exitY=1;exitDx=0;exitDy=0;entryX=0.5;entryY=0;entryDx=0;entryDy=0;fillColor=#fad9d5;strokeColor=#AE4132;fontFamily=Verdana;fontColor=#99004D;fontStyle=1" parent="WIyWlLk6GJQsqaUBKTNV-1" source="WIyWlLk6GJQsqaUBKTNV-11" target="QQQ8afkFYY7rdYaOuxrr-6" edge="1">
          <mxGeometry relative="1" as="geometry">
            <mxPoint x="200" y="690" as="targetPoint" />
          </mxGeometry>
        </mxCell>
        <mxCell id="QQQ8afkFYY7rdYaOuxrr-6" value="&lt;b&gt;Abrir formulario de pago&lt;/b&gt;" style="rounded=1;whiteSpace=wrap;html=1;fontSize=12;glass=0;strokeWidth=1;shadow=0;fillColor=#fad9d5;strokeColor=#ae4132;" parent="WIyWlLk6GJQsqaUBKTNV-1" vertex="1">
          <mxGeometry x="140" y="690" width="120" height="40" as="geometry" />
        </mxCell>
        <mxCell id="QQQ8afkFYY7rdYaOuxrr-10" value="El usuario ingresa los datos de pago" style="rounded=1;whiteSpace=wrap;html=1;fontSize=12;glass=0;strokeWidth=1;shadow=0;fillColor=#fad9d5;strokeColor=#ae4132;fontFamily=Helvetica;fontStyle=1;" parent="WIyWlLk6GJQsqaUBKTNV-1" vertex="1">
          <mxGeometry x="140" y="780" width="120" height="40" as="geometry" />
        </mxCell>
        <mxCell id="QQQ8afkFYY7rdYaOuxrr-11" value="" style="edgeStyle=orthogonalEdgeStyle;rounded=0;orthogonalLoop=1;jettySize=auto;html=1;exitX=0.5;exitY=1;exitDx=0;exitDy=0;entryX=0.5;entryY=0;entryDx=0;entryDy=0;fillColor=#fad9d5;strokeColor=#ae4132;fontFamily=Helvetica;fontStyle=1;fontColor=#99004D;" parent="WIyWlLk6GJQsqaUBKTNV-1" source="QQQ8afkFYY7rdYaOuxrr-6" target="QQQ8afkFYY7rdYaOuxrr-10" edge="1">
          <mxGeometry relative="1" as="geometry">
            <mxPoint x="210" y="635" as="sourcePoint" />
            <mxPoint x="210" y="690" as="targetPoint" />
          </mxGeometry>
        </mxCell>
        <mxCell id="QQQ8afkFYY7rdYaOuxrr-12" value="" style="edgeStyle=orthogonalEdgeStyle;rounded=0;orthogonalLoop=1;jettySize=auto;html=1;exitX=0.5;exitY=1;exitDx=0;exitDy=0;fillColor=#fad9d5;strokeColor=#ae4132;fontFamily=Helvetica;fontStyle=1;fontColor=#99004D;" parent="WIyWlLk6GJQsqaUBKTNV-1" edge="1">
          <mxGeometry relative="1" as="geometry">
            <mxPoint x="199.5" y="820" as="sourcePoint" />
            <mxPoint x="199.5" y="880" as="targetPoint" />
          </mxGeometry>
        </mxCell>
        <mxCell id="QQQ8afkFYY7rdYaOuxrr-14" value="Se verifica el pago" style="rounded=1;whiteSpace=wrap;html=1;fontSize=12;glass=0;strokeWidth=1;shadow=0;fillColor=#fad9d5;strokeColor=#ae4132;fontFamily=Helvetica;fontStyle=1;" parent="WIyWlLk6GJQsqaUBKTNV-1" vertex="1">
          <mxGeometry x="140" y="880" width="120" height="40" as="geometry" />
        </mxCell>
        <mxCell id="QQQ8afkFYY7rdYaOuxrr-15" value="" style="endArrow=classic;html=1;exitX=0.5;exitY=1;exitDx=0;exitDy=0;entryX=0.5;entryY=0.088;entryDx=0;entryDy=0;entryPerimeter=0;fillColor=#fad9d5;strokeColor=#ae4132;fontFamily=Helvetica;fontStyle=1;fontColor=#99004D;" parent="WIyWlLk6GJQsqaUBKTNV-1" source="QQQ8afkFYY7rdYaOuxrr-14" target="QQQ8afkFYY7rdYaOuxrr-16" edge="1">
          <mxGeometry width="50" height="50" relative="1" as="geometry">
            <mxPoint x="390" y="870" as="sourcePoint" />
            <mxPoint x="300" y="900" as="targetPoint" />
          </mxGeometry>
        </mxCell>
        <mxCell id="QQQ8afkFYY7rdYaOuxrr-25" value="" style="edgeStyle=orthogonalEdgeStyle;rounded=0;orthogonalLoop=1;jettySize=auto;html=1;fillColor=#fad9d5;strokeColor=#ae4132;fontFamily=Helvetica;fontStyle=1;fontColor=#99004D;" parent="WIyWlLk6GJQsqaUBKTNV-1" source="QQQ8afkFYY7rdYaOuxrr-16" target="QQQ8afkFYY7rdYaOuxrr-18" edge="1">
          <mxGeometry relative="1" as="geometry" />
        </mxCell>
        <mxCell id="QQQ8afkFYY7rdYaOuxrr-16" value="Datos correctos?" style="rhombus;whiteSpace=wrap;html=1;fillColor=#fad9d5;strokeColor=#ae4132;fontStyle=1" parent="WIyWlLk6GJQsqaUBKTNV-1" vertex="1">
          <mxGeometry x="160" y="960" width="80" height="80" as="geometry" />
        </mxCell>
        <mxCell id="QQQ8afkFYY7rdYaOuxrr-18" value="FIN" style="rounded=1;whiteSpace=wrap;html=1;fillColor=#fad9d5;strokeColor=#ae4132;fontStyle=1" parent="WIyWlLk6GJQsqaUBKTNV-1" vertex="1">
          <mxGeometry x="320" y="970" width="120" height="60" as="geometry" />
        </mxCell>
        <mxCell id="QQQ8afkFYY7rdYaOuxrr-26" value="Yes" style="text;html=1;align=center;verticalAlign=middle;resizable=0;points=[];autosize=1;fontFamily=Helvetica;fontStyle=1;" parent="WIyWlLk6GJQsqaUBKTNV-1" vertex="1">
          <mxGeometry x="250" y="980" width="40" height="20" as="geometry" />
        </mxCell>
        <mxCell id="QQQ8afkFYY7rdYaOuxrr-28" value="" style="endArrow=classic;html=1;exitX=0;exitY=0.5;exitDx=0;exitDy=0;entryX=0;entryY=0.5;entryDx=0;entryDy=0;fillColor=#fad9d5;strokeColor=#ae4132;fontFamily=Helvetica;fontStyle=1;fontColor=#99004D;" parent="WIyWlLk6GJQsqaUBKTNV-1" source="QQQ8afkFYY7rdYaOuxrr-16" target="QQQ8afkFYY7rdYaOuxrr-10" edge="1">
          <mxGeometry width="50" height="50" relative="1" as="geometry">
            <mxPoint x="70" y="1015" as="sourcePoint" />
            <mxPoint x="90" y="780" as="targetPoint" />
            <Array as="points">
              <mxPoint x="90" y="1000" />
              <mxPoint x="90" y="800" />
            </Array>
          </mxGeometry>
        </mxCell>
        <mxCell id="QQQ8afkFYY7rdYaOuxrr-30" value="No" style="text;html=1;align=left;verticalAlign=middle;resizable=0;points=[];autosize=1;fontFamily=Helvetica;fontStyle=1;" parent="WIyWlLk6GJQsqaUBKTNV-1" vertex="1">
          <mxGeometry x="110" y="980" width="30" height="20" as="geometry" />
        </mxCell>
        <mxCell id="QQQ8afkFYY7rdYaOuxrr-32" value="" style="endArrow=classic;html=1;fontFamily=Helvetica;fontColor=#99004D;strokeColor=#99004D;exitX=0.592;exitY=0.05;exitDx=0;exitDy=0;exitPerimeter=0;entryX=1;entryY=0.5;entryDx=0;entryDy=0;" parent="WIyWlLk6GJQsqaUBKTNV-1" source="QQQ8afkFYY7rdYaOuxrr-3" target="WIyWlLk6GJQsqaUBKTNV-12" edge="1">
          <mxGeometry width="50" height="50" relative="1" as="geometry">
            <mxPoint x="390" y="500" as="sourcePoint" />
            <mxPoint x="470" y="390" as="targetPoint" />
            <Array as="points">
              <mxPoint x="611" y="390" />
            </Array>
          </mxGeometry>
        </mxCell>
        <mxCell id="62yGKYg9sWNwVXay85ur-41" style="edgeStyle=orthogonalEdgeStyle;rounded=0;orthogonalLoop=1;jettySize=auto;html=1;fontFamily=Verdana;fontSize=10;fontColor=#000066;strokeColor=#000066;entryX=0.5;entryY=0;entryDx=0;entryDy=0;" edge="1" parent="WIyWlLk6GJQsqaUBKTNV-1" source="62yGKYg9sWNwVXay85ur-0" target="62yGKYg9sWNwVXay85ur-39">
          <mxGeometry relative="1" as="geometry">
            <mxPoint x="390" y="140" as="targetPoint" />
            <Array as="points">
              <mxPoint x="145" y="160" />
              <mxPoint x="145" y="160" />
            </Array>
          </mxGeometry>
        </mxCell>
        <mxCell id="62yGKYg9sWNwVXay85ur-0" value="&lt;h2&gt;&lt;font face=&quot;Verdana&quot; style=&quot;font-size: 13px&quot;&gt;Iniciar sesión&lt;/font&gt;&lt;/h2&gt;" style="rounded=1;whiteSpace=wrap;html=1;fontSize=12;glass=0;strokeWidth=1;shadow=0;fillColor=#dae8fc;strokeColor=#6c8ebf;fontColor=#000033;fontStyle=1" vertex="1" parent="WIyWlLk6GJQsqaUBKTNV-1">
          <mxGeometry x="100" y="120" width="120" height="40" as="geometry" />
        </mxCell>
        <mxCell id="62yGKYg9sWNwVXay85ur-3" value="&lt;font color=&quot;#99004d&quot;&gt;&lt;b&gt;Pagina principal&lt;/b&gt;&lt;/font&gt;" style="rounded=1;whiteSpace=wrap;html=1;fontSize=12;glass=0;strokeWidth=1;shadow=0;fillColor=#e1d5e7;strokeColor=#9673a6;fontFamily=Verdana;" vertex="1" parent="WIyWlLk6GJQsqaUBKTNV-1">
          <mxGeometry x="320" y="170" width="120" height="40" as="geometry" />
        </mxCell>
        <mxCell id="62yGKYg9sWNwVXay85ur-7" value="" style="endArrow=classic;html=1;exitX=0.5;exitY=1;exitDx=0;exitDy=0;entryX=0.417;entryY=0.15;entryDx=0;entryDy=0;entryPerimeter=0;fillColor=#e1d5e7;strokeColor=#9673a6;" edge="1" parent="WIyWlLk6GJQsqaUBKTNV-1" source="62yGKYg9sWNwVXay85ur-3" target="WIyWlLk6GJQsqaUBKTNV-7">
          <mxGeometry width="50" height="50" relative="1" as="geometry">
            <mxPoint x="390" y="270" as="sourcePoint" />
            <mxPoint x="380" y="260" as="targetPoint" />
          </mxGeometry>
        </mxCell>
        <mxCell id="62yGKYg9sWNwVXay85ur-8" value="" style="endArrow=classic;html=1;exitX=0.5;exitY=1;exitDx=0;exitDy=0;fillColor=#e1d5e7;strokeColor=#9673a6;" edge="1" parent="WIyWlLk6GJQsqaUBKTNV-1">
          <mxGeometry width="50" height="50" relative="1" as="geometry">
            <mxPoint x="440" y="189.5" as="sourcePoint" />
            <mxPoint x="520" y="190" as="targetPoint" />
          </mxGeometry>
        </mxCell>
        <mxCell id="62yGKYg9sWNwVXay85ur-10" value="&lt;font color=&quot;#99004d&quot; style=&quot;font-size: 9px&quot;&gt;&lt;b style=&quot;font-size: 9px&quot;&gt;Vender&lt;/b&gt;&lt;/font&gt;" style="rounded=1;whiteSpace=wrap;html=1;fontSize=9;glass=0;strokeWidth=1;shadow=0;fillColor=#e1d5e7;strokeColor=#9673a6;fontFamily=Verdana;" vertex="1" parent="WIyWlLk6GJQsqaUBKTNV-1">
          <mxGeometry x="520" y="170" width="120" height="40" as="geometry" />
        </mxCell>
        <mxCell id="62yGKYg9sWNwVXay85ur-39" value="Usuario registrado?" style="rhombus;whiteSpace=wrap;html=1;shadow=0;fontFamily=Verdana;fontSize=10;align=center;strokeWidth=1;spacing=6;spacingTop=-4;fillColor=#fad9d5;strokeColor=#AE4132;fontColor=#99004D;fontStyle=1" vertex="1" parent="WIyWlLk6GJQsqaUBKTNV-1">
          <mxGeometry x="90" y="190" width="130" height="120" as="geometry" />
        </mxCell>
        <mxCell id="62yGKYg9sWNwVXay85ur-40" value="No" style="rounded=0;html=1;jettySize=auto;orthogonalLoop=1;fontSize=11;endArrow=block;endFill=0;endSize=8;strokeWidth=1;shadow=0;labelBackgroundColor=none;edgeStyle=orthogonalEdgeStyle;exitX=0;exitY=0.5;exitDx=0;exitDy=0;fillColor=#fad9d5;strokeColor=#AE4132;fontFamily=Verdana;fontColor=#99004D;fontStyle=1" edge="1" parent="WIyWlLk6GJQsqaUBKTNV-1" source="62yGKYg9sWNwVXay85ur-39">
          <mxGeometry x="0.3333" y="20" relative="1" as="geometry">
            <mxPoint as="offset" />
            <mxPoint x="70" y="310" as="targetPoint" />
          </mxGeometry>
        </mxCell>
        <mxCell id="62yGKYg9sWNwVXay85ur-42" value="Yes" style="edgeStyle=orthogonalEdgeStyle;rounded=0;html=1;jettySize=auto;orthogonalLoop=1;fontSize=11;endArrow=block;endFill=0;endSize=8;strokeWidth=1;shadow=0;labelBackgroundColor=none;exitX=1;exitY=0.5;exitDx=0;exitDy=0;fillColor=#fad9d5;strokeColor=#AE4132;fontFamily=Verdana;fontColor=#99004D;fontStyle=1;entryX=0;entryY=0.5;entryDx=0;entryDy=0;" edge="1" parent="WIyWlLk6GJQsqaUBKTNV-1" target="62yGKYg9sWNwVXay85ur-3">
          <mxGeometry x="0.4118" y="10" relative="1" as="geometry">
            <mxPoint y="1" as="offset" />
            <mxPoint x="220" y="249.5" as="sourcePoint" />
            <mxPoint x="305" y="249.5" as="targetPoint" />
            <Array as="points">
              <mxPoint x="220" y="190" />
            </Array>
          </mxGeometry>
        </mxCell>
        <mxCell id="62yGKYg9sWNwVXay85ur-44" style="edgeStyle=orthogonalEdgeStyle;rounded=0;orthogonalLoop=1;jettySize=auto;html=1;fontFamily=Verdana;fontSize=10;fontColor=#000066;strokeColor=#000066;exitX=0;exitY=0.5;exitDx=0;exitDy=0;entryX=0;entryY=1;entryDx=0;entryDy=0;" edge="1" parent="WIyWlLk6GJQsqaUBKTNV-1" source="62yGKYg9sWNwVXay85ur-43" target="62yGKYg9sWNwVXay85ur-0">
          <mxGeometry relative="1" as="geometry">
            <mxPoint x="60" y="160" as="targetPoint" />
            <Array as="points">
              <mxPoint y="330" />
              <mxPoint y="235" />
              <mxPoint x="40" y="235" />
              <mxPoint x="40" y="160" />
            </Array>
          </mxGeometry>
        </mxCell>
        <mxCell id="62yGKYg9sWNwVXay85ur-43" value="&lt;font color=&quot;#99004d&quot;&gt;&lt;b&gt;Registro de usuario&lt;/b&gt;&lt;/font&gt;" style="rounded=1;whiteSpace=wrap;html=1;fontSize=12;glass=0;strokeWidth=1;shadow=0;fillColor=#e1d5e7;strokeColor=#9673a6;fontFamily=Verdana;" vertex="1" parent="WIyWlLk6GJQsqaUBKTNV-1">
          <mxGeometry x="20" y="310" width="120" height="40" as="geometry" />
        </mxCell>
      </root>
    </mxGraphModel>
  </diagram>
</mxfile>
